<svg width="440" height="188" viewBox="0 0 440 188" xmlns="http://www.w3.org/2000/svg" xmlns:sketch="http://www.bohemiancoding.com/sketch/ns"><title>Slice 2</title><desc>Created with Sketch.</desc><path d="M439.426 9.355v-9.355h-97.12v.003l-.162-.003c-6.991 0-19.625 0-30.291 4.076 0 0 2.323 6.127 2.353 11.925.024 5.13-2.346 10.931-2.346 10.931v49.064c0 2.172.811 3.353 2.275 4.021 2.686 1.226 5.863 2.127 9.014 3.34 2.099.808 4.424-.917 5.974-3.639 4.488-7.881 9.235-17.556 9.235-17.556s4.932-2.659 7.258-7.679c2.135-4.605 1.841-7.401 1.841-7.401 16.446 23.933 16.673 56.771 16.673 56.771s-18.211-4.166-27.541-6.334c-6.074-1.41-13.229-3.114-16.55-3.114-4.329 0-7.983 2.776-8.118 6.749-.068 2.026 1.129 5.572 3.266 11.39 2.259 6.147 2.561 6.807 5.395 15.024h14.474l-3.182-12.683c11.211 3.637 15.43 9.127 27.606 12.683h79.945v-40.535s-2.451-4.545-6.166-11.057h6.167v-9.354h-11.604c-1.409-2.378-2.888-4.834-4.407-7.301h16.011v-9.355h-21.949c-1.179-1.79-2.355-3.532-3.511-5.19-.497-.712-.999-1.41-1.5-2.11h26.96v-9.355h-34.058c-2.071-2.565-4.157-5.005-6.243-7.301h40.301v-9.355h-49.74c-3.393-2.972-6.715-5.443-9.902-7.3h59.642zm-.015 174.675v-20.296h-14.662v4.771h7.129v13.799c-.631.806-2.414 1.611-4.656 1.611-8.567 0-10.35-8.108-10.35-17.652 0-5.289 0-15.696 8.051-15.696 5.519 0 5.807 4.888 5.978 7.245h8.164c0-7.59-5.519-11.039-14.142-11.039-12.248 0-15.984 8.451-15.984 20.123 0 11.614 5.173 20.814 17.65 20.814 5.463 0 9.832-1.898 12.822-3.68zm-42.435 3.047v-39.672h-6.153v29.437h-.115l-15.352-29.437h-8.22v39.672h6.15v-30.875h.115l16.1 30.875h7.475zm-42.895-13.512v-26.16h-7.531v26.16c0 6.21-.805 10.35-6.901 10.35-5.75 0-6.726-4.14-6.726-10.35v-26.16h-7.531v26.16c0 7.072 1.494 14.145 14.257 14.145 12.938 0 14.432-7.073 14.432-14.145zm-48.183-15.236c0 5.807-3.795 7.187-9.143 7.187h-1.494v-13.914h1.494c4.658 0 9.143.403 9.143 6.727zm9.14 28.748l-2.242-10.522c-.977-4.599-1.781-8.394-7.647-9.486v-.115c3.565-.92 8.28-3.048 8.28-9.199 0-9.028-7.877-10.35-16.674-10.35h-9.025v39.672h7.531v-17.364h2.357c5.922 0 7.072 2.645 8.451 9.889l1.438 7.475h7.531zm-38.582 0v-4.773h-16.154v-13.626h14.832v-4.542h-14.832v-12.189h15.638v-4.542h-23.171v39.672h23.687zm-37.144 0v-39.672h-7.532v16.616h-13.799v-16.616h-7.532v39.672h7.532v-18.514h13.799v18.514h7.532zm-38.525-28.863c0-6.957-4.542-11.441-13.914-11.441-12.017 0-16.214 9.199-16.214 19.721 0 11.211 4.772 21.216 17.306 21.216 4.772 0 8.682-1.496 11.212-2.473v-6.209c-1.438 1.092-4.83 3.909-9.832 3.909-10.579 0-10.752-13.108-10.752-17.708 0-5.29 1.15-14.662 7.82-14.662 4.829 0 5.807 4.543 5.807 7.647h8.567zm-49.562 28.863h7.531v-39.672h-7.531v39.672zm-10.755-11.155c0-12.303-19.376-12.763-19.376-20.525 0-2.473 2.242-4.082 5.405-4.082 4.599 0 9.544 2.012 10.924 2.702v-6.152c-1.495-.287-5.692-1.092-9.889-1.092-8.567 0-13.397 3.852-13.397 10.233 0 12.535 18.801 12.362 18.801 21.332 0 3.737-3.68 4.829-6.209 4.829-4.485 0-8.912-2.357-11.959-4.254v7.013c1.437.404 5.98 1.784 10.752 1.784 8.509 0 14.948-3.163 14.948-11.788zm-44.045-17.593c0 5.807-3.794 7.187-9.141 7.187h-1.495v-13.914h1.495c4.657 0 9.141.403 9.141 6.727zm9.142 28.748l-2.242-10.522c-.977-4.599-1.782-8.394-7.647-9.486v-.115c3.565-.92 8.28-3.048 8.28-9.199 0-9.028-7.877-10.35-16.674-10.35h-9.027v39.672h7.532v-17.364h2.357c5.922 0 7.072 2.645 8.452 9.889l1.438 7.475h7.531zm-38.582 0v-4.773h-16.156v-13.626h14.834v-4.542h-14.834v-12.189h15.639v-4.542h-23.171v39.672h23.688zm-31.97-39.672h-6.67l-10.291 30.588h-.115l-10.12-30.588h-7.819l13.511 39.672h7.762l13.742-39.672zm140.829-147.394l-36.893-.003-25.514 70.866-25.515-70.85-36.844-.013 51.019 127.55h22.696l51.051-127.55zm-93.589 127.55l-11.335-28.337h-36.856v-99.213h-34.014v127.55h82.205zm209.764 0h-34.014v-56.687l-22.676 56.687h-34.009l-.011-56.687-22.668 56.687h-34.005l51.052-127.561h33.972v70.874l28.396-70.874h33.963v127.561z" fill="#05A048" sketch:type="MSShapeGroup"/></svg>